<svg xmlns="http://www.w3.org/2000/svg" xmlns:xlink="http://www.w3.org/1999/xlink" id="Lag_1" x="0px" y="0px" viewBox="0 0 510.2 396.9" style="enable-background:new 0 0 510.2 396.9;" xml:space="preserve"><style type="text/css">	.st0{fill:#00354A;}	.st1{fill:#7FBACB;}</style><g>	<g>		<g>			<g>				<path class="st0" d="M209.2,27.9c-12.5,0-22.8,10.2-22.8,22.8c0,12.5,10.2,22.8,22.8,22.8S232,63.3,232,50.7     C231.9,38.1,221.7,27.9,209.2,27.9z"></path>				<g>					<path class="st0" d="M161.8,175.3c0,26.3-20.5,53.7-63.5,53.7H14.8V34.6H90c41.3,0,60.5,25.7,60.5,50.9      c0,15.6-7.4,35.9-29.3,42.2C145.6,131.2,161.8,152.1,161.8,175.3z M80.2,68.5h-26v47.6h26c21.9,0,30.4-10.1,30.4-23.8      C110.6,78.4,102.1,68.5,80.2,68.5z M121.5,169.9c0-14.2-10.7-25.2-33.1-25.2H54.2V195h34.2C110.9,195,121.5,184.6,121.5,169.9z      "></path>					<path class="st0" d="M189.4,97.6l38.6-5.5V229h-38.6V97.6z"></path>				</g>				<path class="st1" d="M359.2,103.1c-15.7,0-28.5,12.8-28.5,28.5s12.8,28.5,28.5,28.5s28.5-12.8,28.5-28.5     S374.9,103.1,359.2,103.1z"></path>			</g>			<path class="st0" d="M495.5,243.6l-53.8-53.8c11.7-16.5,18.6-36.6,18.6-58.3c0-55.7-45.3-101-101-101s-101,45.3-101,101    s45.3,101,101,101c21.1,0,40.7-6.5,57-17.7l28.7,28.7h50.5V243.6z M294.1,131.6c0-35.9,29.2-65.1,65.1-65.1s65.1,29.2,65.1,65.1    s-29.2,65.1-65.1,65.1C323.3,196.7,294.1,167.5,294.1,131.6z"></path>		</g>	</g></g><g>	<path class="st0" d="M15,271.3h12.7c7.7,0,12.2,3.2,12.2,8.7c0,4-2.7,7.2-7,8.6v0.1c5.3,0.7,8.6,4.2,8.6,9c0,6.7-5.2,11-13.2,11H15  V271.3z M22.2,286.6h3.9c3.9,0,6.2-1.9,6.2-5.3c0-3-2.2-4.5-6.4-4.5h-3.7V286.6z M22.2,303.1h5c4.3,0,6.7-2.1,6.7-5.5  c0-3.5-2.3-5.3-7-5.3h-4.7V303.1z"></path>	<path class="st0" d="M48.7,308.6v-37.3h20.7v6H55.9v9.5h12.6v6H55.9v9.8h14.4v6H48.7z"></path>	<path class="st0" d="M92.2,277.3v31.3h-7.2v-31.3H74.3v-6h28.5v6H92.2z"></path>	<path class="st0" d="M124.6,277.3v31.3h-7.2v-31.3h-10.6v-6h28.5v6H124.6z"></path>	<path class="st0" d="M140.9,308.6v-37.3h20.7v6h-13.5v9.5h12.6v6h-12.6v9.8h14.4v6H140.9z"></path>	<path class="st0" d="M191.2,308.6l-5.9-9.9c-2.4-4-3.8-4.9-5.8-4.9h-2.6v14.7h-7.2v-37.3h12.7c8.6,0,12.9,3.4,12.9,10.1  c0,4.9-3,8.8-8.3,10.3v0.1c1.7,0.6,3.6,2.5,5.6,5.8l7,11.1H191.2z M176.9,288.2h4.3c3.9,0,6.5-2.6,6.5-6c0-3.5-2.1-5.3-6.3-5.3  h-4.4V288.2z"></path>	<path class="st0" d="M224.9,271.3h12.4c13.2,0,19.8,6.1,19.8,18.2c0,11.5-8.2,19.1-20,19.1h-12.2V271.3z M232.1,302.6h4.6  c8,0,12.8-4.9,12.8-13c0-7.9-4.8-12.3-12.7-12.3h-4.6V302.6z"></path>	<path class="st0" d="M286.4,308.6l-3-8.9h-14l-2.9,8.9h-7.9l13.8-37.3h8.3l13.6,37.3H286.4z M277,280.5c-0.2-0.5-0.4-1.6-0.6-3.1  h-0.2c-0.1,1.1-0.4,2.2-0.6,3L271,294h10.5L277,280.5z"></path>	<path class="st0" d="M310.2,277.3v31.3h-7.2v-31.3h-10.6v-6h28.5v6H310.2z"></path>	<path class="st0" d="M346.7,308.6l-3-8.9h-14l-2.9,8.9h-7.9l13.8-37.3h8.3l13.6,37.3H346.7z M337.3,280.5c-0.2-0.5-0.4-1.6-0.6-3.1  h-0.2c-0.1,1.1-0.4,2.2-0.6,3l-4.6,13.6h10.5L337.3,280.5z"></path>	<path class="st0" d="M392.3,309.2c-8.4,0-13.7-4.3-13.7-11.2c0-4.9,3-8.5,8.9-10.9c-3-2.4-4.5-4.9-4.5-7.8c0-5.3,4.3-8.6,10.8-8.6  c6.1,0,10.3,3.3,10.3,8.1c0,3.8-2.3,6.6-6.8,8.5c3.6,1.5,6.7,4.3,9.3,8.3c2.7-3.5,4-7.7,4-12.6c0-1.3-0.2-2.5-0.5-3.6h6.2  c0.3,1,0.5,2.2,0.5,3.4c0,6.3-2.3,12.1-7,17.3c2,2.3,3.9,3.4,5.6,3.4c1.5,0,2.9-0.3,4.4-1v5.5c-1.7,0.7-3.5,1-5.4,1  c-3.1,0-6.1-1.6-8.8-5C402,307.6,397.5,309.2,392.3,309.2z M391.8,290.1c-4,1.7-6.1,4.3-6.1,7.7c0,3.6,2.8,6,6.8,6  c3.8,0,7.2-1.3,10.1-4C399.7,295,396.1,291.8,391.8,290.1z M397.9,279.3c0-2.2-1.8-3.7-4-3.7c-2.7,0-4.4,1.7-4.4,3.9  c0,2.1,1.2,3.7,3.5,5.1C396.2,283.4,397.9,281.6,397.9,279.3z"></path>	<path class="st0" d="M15,330.3h12.4c13.2,0,19.8,6.1,19.8,18.2c0,11.5-8.2,19.1-20,19.1H15V330.3z M22.2,361.6h4.6  c8,0,12.8-4.9,12.8-13c0-7.9-4.8-12.3-12.7-12.3h-4.6V361.6z"></path>	<path class="st0" d="M54.4,367.5v-37.3h20.7v6H61.6v9.5h12.6v6H61.6v9.8h14.4v6H54.4z"></path>	<path class="st0" d="M109,366.1c-2.7,1.4-6.2,2.1-10.5,2.1c-11,0-18.1-7.3-18.1-18.5c0-11.8,8.1-20,19.6-20c3.6,0,6.6,0.5,9.1,1.4  v7c-2.5-1.5-5.4-2.2-8.6-2.2c-7.5,0-12.5,5.4-12.5,13.2c0,7.7,4.7,12.7,11.9,12.7c3.4,0,6.5-0.8,9.2-2.4V366.1z"></path>	<path class="st0" d="M123.8,367.5h-7.2v-37.3h7.2V367.5z"></path>	<path class="st0" d="M131.9,358.7c3,2.5,6.3,3.7,10.2,3.7c4.6,0,6.8-1.7,6.8-4.4c0-1.1-0.5-2.2-1.4-3.1s-3.2-2.2-6.9-3.7  c-6.2-2.8-8.8-6.1-8.8-10.8c0-6.7,5.7-10.7,14.1-10.7c3.8,0,6.8,0.5,8.9,1.4v6.9c-2.4-1.6-5.3-2.5-8.7-2.5c-4,0-6.7,1.6-6.7,4.3  c0,1.1,0.4,2,1.3,2.9s2.9,2,6.1,3.4c7.3,3.2,9.7,6.4,9.7,11.3c0,7-5.3,10.8-14.3,10.8c-4.2,0-7.6-0.7-10.3-2.1V358.7z"></path>	<path class="st0" d="M170.9,367.5h-7.2v-37.3h7.2V367.5z"></path>	<path class="st0" d="M196.7,329.6c10.6,0,17.7,7.9,17.7,18.9c0,11.7-7.3,19.6-18.2,19.6c-10.7,0-17.9-7.9-17.9-18.8  C178.2,337.7,185.5,329.6,196.7,329.6z M196.2,361.9c6.7,0,10.5-4.9,10.5-12.8c0-8.1-3.7-13.1-10.3-13.1c-6.6,0-10.7,5.5-10.7,13  C185.8,356.5,189.8,361.9,196.2,361.9z"></path>	<path class="st0" d="M246.5,367.5L230,342.3c-0.7-1-1.2-2-1.7-2.9h-0.1c0.1,1.2,0.2,3.1,0.2,5.8v22.4h-6.9v-37.3h8.1l15.9,24.6  c0.8,1.2,1.4,2.2,1.8,2.9h0.1c-0.1-0.7-0.2-2.4-0.2-5.2v-22.3h6.9v37.3H246.5z"></path>	<path class="st0" d="M300.4,329.6c10.6,0,17.7,7.9,17.7,18.9c0,6.3-1.9,11.3-5.8,15l9.4,9h-11.1l-5-5.1c-1.7,0.5-3.6,0.8-5.7,0.8  c-10.7,0-17.9-7.9-17.9-18.8C281.9,337.7,289.2,329.6,300.4,329.6z M299.9,361.9c6.7,0,10.5-4.9,10.5-12.8  c0-8.1-3.7-13.1-10.3-13.1c-6.6,0-10.7,5.5-10.7,13C289.5,356.5,293.5,361.9,299.9,361.9z"></path>	<path class="st0" d="M354.6,351.7c0,11-5.1,16.5-15.2,16.5c-9.8,0-14.7-5.3-14.7-16v-21.9h7.2v21.9c0,6.5,2.6,9.8,7.8,9.8  c5.1,0,7.6-3.1,7.6-9.4v-22.2h7.2V351.7z"></path>	<path class="st0" d="M385.8,367.5l-3-8.9h-14l-2.9,8.9H358l13.8-37.3h8.3l13.6,37.3H385.8z M376.5,339.4c-0.2-0.5-0.4-1.6-0.6-3.1  h-0.2c-0.1,1.1-0.4,2.2-0.6,3l-4.6,13.6H381L376.5,339.4z"></path>	<path class="st0" d="M399.1,367.5v-37.3h7.2v31.3h14.1v6H399.1z"></path>	<path class="st0" d="M433.2,367.5H426v-37.3h7.2V367.5z"></path>	<path class="st0" d="M456.8,336.3v31.3h-7.2v-31.3h-10.6v-6h28.5v6H456.8z"></path>	<path class="st0" d="M489.9,354.1v13.4h-7.2v-13.2l-11.9-24h8.3l6.7,14.8c0.1,0.2,0.4,1.2,0.9,2.8h0.1c0.2-1,0.5-2,0.8-2.8  l6.9-14.8h7.7L489.9,354.1z"></path></g></svg>